<svg xmlns="http://www.w3.org/2000/svg" viewBox="0 0 841.9 595.3">
    <g fill="#fef810">
        <path d="M0,90.976v303.259h485.211V90.976H0z M454.889,363.904H30.327V121.303h424.562V363.904z M439.721,136.466H45.49v212.28
		h394.231V136.466z M90.978,166.793v45.487H75.816v-45.487H60.651v-15.166h15.166h15.161V166.793z M242.606,333.583
		c-50.244,0-90.978-40.721-90.978-90.979c0-50.255,40.734-90.978,90.978-90.978c50.255,0,90.979,40.723,90.979,90.978
		C333.586,292.862,292.861,333.583,242.606,333.583z M424.562,288.093v45.49h-15.163v-45.49h-15.163v-15.164h15.163h15.163V288.093z
		 M227.443,204.699h7.584v30.327h-7.584c-3.405-0.089-7.582-1.481-7.582-7.582V212.28
		C219.861,206.181,224.038,204.788,227.443,204.699z M250.186,250.187h7.584c3.407,0.089,7.579,1.484,7.579,7.584v15.158
		c0,6.105-4.172,7.496-7.579,7.58h-7.584V250.187z M242.606,166.793c-41.798,0-75.812,33.997-75.812,75.812
		s34.014,75.81,75.812,75.81c41.817,0,75.816-33.995,75.816-75.81S284.424,166.793,242.606,166.793z M257.77,235.025
		c9.152,0,22.747,6.039,22.747,22.745v15.158c0,16.704-13.595,22.748-22.747,22.748h-7.584v7.579c0,4.177-3.402,7.584-7.579,7.584
		c-4.175,0-7.58-3.407-7.58-7.584v-7.579h-22.745c-4.177,0-7.582-3.407-7.582-7.584c0-4.173,3.405-7.584,7.582-7.584h22.745v-30.322
		h-7.584c-9.15,0-22.743-6.044-22.743-22.743V212.28c0-16.703,13.593-22.743,22.743-22.743h7.584v-7.584
		c0-4.174,3.405-7.582,7.58-7.582c4.177,0,7.579,3.407,7.579,7.582v7.584h22.747c4.173,0,7.584,3.402,7.584,7.58
		c0,4.177-3.411,7.582-7.584,7.582h-22.747v30.327H257.77z"/>
    </g>
</svg>
